<?xml version="1.0" encoding="UTF-8"?>
<svg width="550px" height="550px" viewBox="0 0 550 550" version="1.1" xmlns="http://www.w3.org/2000/svg" xmlns:xlink="http://www.w3.org/1999/xlink">
    <title>ant-rack-logo@1x</title>
    <defs>
        <radialGradient cx="100%" cy="0%" fx="100%" fy="0%" r="100%" id="radialGradient-1">
            <stop stop-color="#FFFFFF" offset="0%"></stop>
            <stop stop-color="#423DB0" offset="100%"></stop>
        </radialGradient>
    </defs>
    <g id="ant-rack-logo" stroke="none" stroke-width="1" fill="none" fill-rule="evenodd">
        <rect id="矩形" fill="url(#radialGradient-1)" x="0" y="0" width="550" height="550"></rect>
        <g id="rocket(1)" transform="translate(275.126379, 275.016241) rotate(-45.000000) translate(-275.126379, -275.016241) translate(110.000000, 108.000000)" fill-rule="nonzero">
            <path d="M291.232406,215.977546 C292.282406,214.599546 292.545406,212.776546 291.926406,211.158546 L272.361406,160.034546 C271.067406,156.651546 266.717406,155.724546 264.156406,158.285546 L190.552406,231.890546 C189.336406,233.105546 188.830406,234.860546 189.212406,236.536546 L206.700406,313.333546 C207.642406,317.468546 212.981406,318.627546 215.552406,315.254546 L291.232406,215.977546 Z" id="路径" fill="#0300AB"></path>
            <path d="M116.270406,40.9005456 C117.597406,39.8615456 119.358406,39.5615456 120.954406,40.1015456 L167.621406,55.8945456 C171.133406,57.0825456 172.175406,61.5445456 169.554406,64.1655456 L96.084406,137.636546 C94.927406,138.792546 93.278406,139.310546 91.668406,139.022546 L20.672406,126.317546 C16.418406,125.556546 15.068406,120.122546 18.471406,117.458546 L116.270406,40.9005456 Z" id="路径" fill="#0300AB"></path>
            <path d="M107.506406,222.355546 L124.801406,205.060546 L142.097406,187.764546 L326.579406,3.28224561 C326.579406,3.28224561 288.225406,-12.1628544 215.522406,23.9555456 C173.698406,44.7335456 139.698406,69.1855456 106.312406,97.2115456 C85.955406,114.300546 67.209406,134.605546 48.064406,156.294546 C46.319406,158.270546 46.415406,161.264546 48.279406,163.128546 L53.937406,168.786546 C55.889406,170.738546 55.889406,173.904546 53.937406,175.857546 L49.478406,180.316546 C47.525406,182.268546 47.525406,185.434546 49.478406,187.387546 L57.068406,194.977546 C59.021406,196.930546 59.021406,200.096546 57.068406,202.048546 L52.609406,206.507546 C50.656406,208.460546 50.656406,211.626546 52.609406,213.579546 L84.446406,245.415546 L95.976406,233.885546 L107.506406,222.355546 Z" id="路径" fill="#4F8AE2"></path>
            <path d="M107.506406,222.355546 L124.801406,205.060546 L142.097406,187.764546 L326.579406,3.28224561 C326.579406,3.28224561 342.772406,42.3845456 307.161406,115.594546 C286.675406,157.711546 262.356406,191.843546 234.404406,225.304546 C217.359406,245.709546 197.030406,264.434546 175.304406,283.546546 C173.327406,285.285546 170.338406,285.187546 168.476406,283.325546 L162.465406,277.314546 C160.513406,275.361546 157.347406,275.361546 155.394406,277.314546 L150.935406,281.773546 C148.982406,283.726546 145.817406,283.726546 143.864406,281.773546 L135.866406,273.775546 C133.914406,271.823546 130.748406,271.823546 128.795406,273.775546 L124.336406,278.235546 C122.383406,280.187546 119.218406,280.187546 117.265406,278.235546 L84.446406,245.415546 L95.976406,233.885546 L107.506406,222.355546 Z" id="路径" fill="#F2E9FE"></path>
            <path d="M52.443406,249.021546 C61.901406,258.479546 68.449406,265.027546 84.455406,281.033546 C102.071406,298.648546 38.069406,336.149546 33.704406,331.784546 C30.885406,328.965546 16.499406,331.646546 6.66040595,333.899546 C2.69540595,334.807546 -0.91659405,330.906546 0.20840595,326.997546 C2.90440595,317.632546 5.86840595,303.948546 1.69240595,299.772546 C-4.85569405,293.224546 36.101406,232.678546 52.443406,249.021546 Z" id="路径" fill="#0300AB"></path>
            <path d="M55.222406,251.800546 C63.035406,259.613546 68.445406,265.022546 81.667406,278.244546 C96.219406,292.796546 47.209406,319.914546 43.603406,316.308546 C41.405406,314.109546 31.265406,315.382546 23.686406,316.711546 C19.858406,317.381546 16.474406,313.706546 17.343406,309.918546 C18.992406,302.730546 20.402406,293.106546 17.159406,289.863546 C11.750406,284.454546 41.722406,238.300546 55.222406,251.800546 Z" id="路径" fill="#0300DD"></path>
            <path d="M59.391406,255.968546 C64.736406,261.314546 68.437406,265.015546 77.484406,274.062546 C87.441406,284.018546 54.576406,301.905546 52.109406,299.437546 C50.853406,298.182546 45.881406,298.511546 41.301406,299.138546 C37.500406,299.658546 34.179406,296.041546 34.829406,292.261546 C35.574406,287.933546 35.850406,283.179546 34.015406,281.344546 C30.314406,277.643546 50.154406,246.731546 59.391406,255.968546 Z" id="路径" fill="#0300FF"></path>
            <path d="M52.665406,222.420546 C54.338406,219.631546 58.188406,219.157546 60.488406,221.457546 L110.539406,271.508546 C112.724406,273.693546 112.424406,277.317546 109.909406,279.113546 L93.234406,291.024546 C91.245406,292.445546 88.520406,292.219546 86.792406,290.491546 L42.696406,246.395546 C41.074406,244.773546 40.764406,242.255546 41.944406,240.287546 L52.665406,222.420546 Z" id="路径" fill="#5B6575"></path>
            <circle id="椭圆形" stroke="#0049BE" stroke-width="10" fill="#FF7F7F" transform="translate(266.412406, 64.181546) rotate(45.000000) translate(-266.412406, -64.181546) " cx="266.412406" cy="64.1815456" r="35.2857"></circle>
            <path d="M188.543406,115.966546 C189.266406,115.078546 190.273406,114.464546 191.395406,114.229546 L213.706406,109.553546 C217.237406,108.813546 220.366406,111.942546 219.626406,115.473546 L214.950406,137.784546 C214.715406,138.906546 214.101406,139.913546 213.213406,140.636546 L118.372406,217.841546 C113.705406,221.641546 107.538406,215.474546 111.338406,210.807546 L188.543406,115.966546 Z" id="路径" fill="#0300AB"></path>
        </g>
    </g>
</svg>